<svg height="512pt" viewBox="-47 0 512 512" width="512pt" xmlns="http://www.w3.org/2000/svg"><path d="m223.644531 305.984375c25.585938-3.824219 48.53125-17.378906 64.453125-38.484375l129.148438-171.226562h-417.246094l129.152344 171.226562c15.917968 21.105469 38.863281 34.660156 64.449218 38.484375v175.972656h-83.140624v30.042969h196.324218v-30.042969h-83.140625zm0 0" fill="#f2f2fc"/><path d="m223.644531 305.984375c25.585938-3.824219 48.53125-17.378906 64.453125-38.484375l129.148438-171.226562h-208.570313v415.726562h98.109375v-30.042969h-83.140625zm0 0" fill="#e2d9fb"/><path d="m348.492188 0c-15.054688 0-27.300782 12.246094-27.300782 27.300781 0 4.558594 1.132813 8.859375 3.117188 12.644531l-93.867188 142.734376 25.101563 16.507812 95.148437-144.683594c14.027344-1.125 25.097656-12.894531 25.097656-27.203125 0-15.054687-12.246093-27.300781-27.296874-27.300781zm0 0" fill="#edbe2b"/><path d="m61.808594 178.941406 67.34375 89.28125c18.980468 25.167969 47.949218 39.597656 79.472656 39.597656s60.488281-14.429687 79.472656-39.597656l67.34375-89.28125zm0 0" fill="#fd5d99"/><path d="m208.675781 178.941406v128.878906c31.503907-.011718 60.449219-14.445312 79.421875-39.597656l67.34375-89.28125zm0 0" fill="#e2407a"/></svg>